<mxfile host="app.diagrams.net" modified="2020-11-13T06:34:30.170Z" agent="5.0 (Macintosh; Intel Mac OS X 10_14_1) AppleWebKit/537.36 (KHTML, like Gecko) Chrome/86.0.4240.193 Safari/537.36" etag="AvRtORuBhs3q6VtnfycD" version="13.9.7" type="github">
  <diagram id="C5RBs43oDa-KdzZeNtuy" name="Page-1">
    <mxGraphModel dx="1186" dy="684" grid="1" gridSize="10" guides="1" tooltips="1" connect="1" arrows="1" fold="1" page="1" pageScale="1" pageWidth="827" pageHeight="1169" math="0" shadow="0">
      <root>
        <mxCell id="WIyWlLk6GJQsqaUBKTNV-0" />
        <mxCell id="WIyWlLk6GJQsqaUBKTNV-1" parent="WIyWlLk6GJQsqaUBKTNV-0" />
        <mxCell id="d_tqDm1wJLpYaKFArsP5-10" style="edgeStyle=orthogonalEdgeStyle;rounded=0;sketch=0;orthogonalLoop=1;jettySize=auto;html=1;exitX=0.25;exitY=1;exitDx=0;exitDy=0;entryX=0.5;entryY=0;entryDx=0;entryDy=0;shadow=0;endArrow=block;endFill=0;fontSize=25;" edge="1" parent="WIyWlLk6GJQsqaUBKTNV-1" source="WIyWlLk6GJQsqaUBKTNV-3" target="d_tqDm1wJLpYaKFArsP5-6">
          <mxGeometry relative="1" as="geometry" />
        </mxCell>
        <mxCell id="d_tqDm1wJLpYaKFArsP5-16" style="edgeStyle=orthogonalEdgeStyle;rounded=0;sketch=0;orthogonalLoop=1;jettySize=auto;html=1;exitX=0.75;exitY=1;exitDx=0;exitDy=0;entryX=0.5;entryY=0;entryDx=0;entryDy=0;shadow=0;endArrow=block;endFill=0;fontSize=12;" edge="1" parent="WIyWlLk6GJQsqaUBKTNV-1" source="WIyWlLk6GJQsqaUBKTNV-3" target="WIyWlLk6GJQsqaUBKTNV-6">
          <mxGeometry relative="1" as="geometry" />
        </mxCell>
        <mxCell id="WIyWlLk6GJQsqaUBKTNV-3" value="进入交易流程" style="rounded=1;whiteSpace=wrap;html=1;fontSize=12;glass=0;strokeWidth=1;shadow=0;fillColor=#f8cecc;strokeColor=#b85450;" parent="WIyWlLk6GJQsqaUBKTNV-1" vertex="1">
          <mxGeometry x="346" y="180" width="120" height="40" as="geometry" />
        </mxCell>
        <mxCell id="d_tqDm1wJLpYaKFArsP5-28" style="edgeStyle=orthogonalEdgeStyle;rounded=0;sketch=0;orthogonalLoop=1;jettySize=auto;html=1;exitX=1;exitY=0.5;exitDx=0;exitDy=0;entryX=0.5;entryY=0;entryDx=0;entryDy=0;shadow=0;endArrow=block;endFill=0;fontSize=12;" edge="1" parent="WIyWlLk6GJQsqaUBKTNV-1" source="WIyWlLk6GJQsqaUBKTNV-6" target="d_tqDm1wJLpYaKFArsP5-19">
          <mxGeometry relative="1" as="geometry" />
        </mxCell>
        <mxCell id="d_tqDm1wJLpYaKFArsP5-29" value="失败" style="edgeLabel;html=1;align=center;verticalAlign=middle;resizable=0;points=[];fontSize=12;" vertex="1" connectable="0" parent="d_tqDm1wJLpYaKFArsP5-28">
          <mxGeometry x="-0.12" relative="1" as="geometry">
            <mxPoint as="offset" />
          </mxGeometry>
        </mxCell>
        <mxCell id="d_tqDm1wJLpYaKFArsP5-40" style="edgeStyle=orthogonalEdgeStyle;rounded=0;sketch=0;orthogonalLoop=1;jettySize=auto;html=1;exitX=0;exitY=0.5;exitDx=0;exitDy=0;entryX=0.5;entryY=0;entryDx=0;entryDy=0;shadow=0;endArrow=block;endFill=0;fontSize=12;" edge="1" parent="WIyWlLk6GJQsqaUBKTNV-1" source="WIyWlLk6GJQsqaUBKTNV-6" target="d_tqDm1wJLpYaKFArsP5-39">
          <mxGeometry relative="1" as="geometry" />
        </mxCell>
        <mxCell id="d_tqDm1wJLpYaKFArsP5-41" value="成功" style="edgeLabel;html=1;align=center;verticalAlign=middle;resizable=0;points=[];fontSize=12;" vertex="1" connectable="0" parent="d_tqDm1wJLpYaKFArsP5-40">
          <mxGeometry x="-0.2658" y="1" relative="1" as="geometry">
            <mxPoint as="offset" />
          </mxGeometry>
        </mxCell>
        <mxCell id="WIyWlLk6GJQsqaUBKTNV-6" value="锁券" style="rhombus;whiteSpace=wrap;html=1;shadow=0;fontFamily=Helvetica;fontSize=12;align=center;strokeWidth=1;spacing=6;spacingTop=-4;fillColor=#f8cecc;strokeColor=#b85450;" parent="WIyWlLk6GJQsqaUBKTNV-1" vertex="1">
          <mxGeometry x="460" y="280" width="100" height="80" as="geometry" />
        </mxCell>
        <mxCell id="d_tqDm1wJLpYaKFArsP5-15" style="edgeStyle=orthogonalEdgeStyle;rounded=0;sketch=0;orthogonalLoop=1;jettySize=auto;html=1;exitX=0.5;exitY=1;exitDx=0;exitDy=0;shadow=0;endArrow=block;endFill=0;fontSize=25;" edge="1" parent="WIyWlLk6GJQsqaUBKTNV-1" source="d_tqDm1wJLpYaKFArsP5-6" target="d_tqDm1wJLpYaKFArsP5-13">
          <mxGeometry relative="1" as="geometry" />
        </mxCell>
        <mxCell id="d_tqDm1wJLpYaKFArsP5-6" value="创建不可见订单" style="rounded=1;whiteSpace=wrap;html=1;absoluteArcSize=1;arcSize=14;strokeWidth=2;fillColor=#f8cecc;strokeColor=#b85450;" vertex="1" parent="WIyWlLk6GJQsqaUBKTNV-1">
          <mxGeometry x="260" y="280" width="94" height="75" as="geometry" />
        </mxCell>
        <mxCell id="d_tqDm1wJLpYaKFArsP5-9" value="消息队列分离事务" style="text;html=1;align=center;verticalAlign=middle;resizable=0;points=[];autosize=1;fontSize=25;" vertex="1" parent="WIyWlLk6GJQsqaUBKTNV-1">
          <mxGeometry x="304" y="80" width="220" height="40" as="geometry" />
        </mxCell>
        <mxCell id="d_tqDm1wJLpYaKFArsP5-18" style="edgeStyle=orthogonalEdgeStyle;rounded=0;sketch=0;orthogonalLoop=1;jettySize=auto;html=1;exitX=0.5;exitY=1;exitDx=0;exitDy=0;exitPerimeter=0;entryX=0.5;entryY=0;entryDx=0;entryDy=0;entryPerimeter=0;shadow=0;endArrow=block;endFill=0;fontSize=12;" edge="1" parent="WIyWlLk6GJQsqaUBKTNV-1" source="d_tqDm1wJLpYaKFArsP5-13" target="d_tqDm1wJLpYaKFArsP5-17">
          <mxGeometry relative="1" as="geometry" />
        </mxCell>
        <mxCell id="d_tqDm1wJLpYaKFArsP5-13" value="订单变可见" style="strokeWidth=2;html=1;shape=mxgraph.flowchart.start_1;whiteSpace=wrap;fontSize=12;align=center;verticalAlign=middle;fillColor=#f8cecc;strokeColor=#b85450;" vertex="1" parent="WIyWlLk6GJQsqaUBKTNV-1">
          <mxGeometry x="257" y="430" width="100" height="60" as="geometry" />
        </mxCell>
        <mxCell id="d_tqDm1wJLpYaKFArsP5-17" value="结束" style="strokeWidth=2;html=1;shape=mxgraph.flowchart.start_2;whiteSpace=wrap;fontSize=12;align=center;fillColor=#f8cecc;strokeColor=#b85450;" vertex="1" parent="WIyWlLk6GJQsqaUBKTNV-1">
          <mxGeometry x="257" y="540" width="100" height="100" as="geometry" />
        </mxCell>
        <mxCell id="d_tqDm1wJLpYaKFArsP5-34" style="edgeStyle=orthogonalEdgeStyle;rounded=0;sketch=0;orthogonalLoop=1;jettySize=auto;html=1;exitX=0.25;exitY=1;exitDx=0;exitDy=0;entryX=0.5;entryY=0;entryDx=0;entryDy=0;shadow=0;endArrow=block;endFill=0;fontSize=12;dashed=1;" edge="1" parent="WIyWlLk6GJQsqaUBKTNV-1" source="d_tqDm1wJLpYaKFArsP5-19" target="d_tqDm1wJLpYaKFArsP5-20">
          <mxGeometry relative="1" as="geometry" />
        </mxCell>
        <mxCell id="d_tqDm1wJLpYaKFArsP5-35" style="edgeStyle=orthogonalEdgeStyle;rounded=0;sketch=0;orthogonalLoop=1;jettySize=auto;html=1;exitX=0.75;exitY=1;exitDx=0;exitDy=0;entryX=0.5;entryY=0;entryDx=0;entryDy=0;shadow=0;endArrow=block;endFill=0;fontSize=12;dashed=1;" edge="1" parent="WIyWlLk6GJQsqaUBKTNV-1" source="d_tqDm1wJLpYaKFArsP5-19" target="d_tqDm1wJLpYaKFArsP5-21">
          <mxGeometry relative="1" as="geometry" />
        </mxCell>
        <mxCell id="d_tqDm1wJLpYaKFArsP5-38" style="edgeStyle=orthogonalEdgeStyle;rounded=0;sketch=0;orthogonalLoop=1;jettySize=auto;html=1;exitX=0;exitY=0.75;exitDx=0;exitDy=0;entryX=1;entryY=0.5;entryDx=0;entryDy=0;entryPerimeter=0;shadow=0;endArrow=block;endFill=0;fontSize=12;" edge="1" parent="WIyWlLk6GJQsqaUBKTNV-1" source="d_tqDm1wJLpYaKFArsP5-19" target="d_tqDm1wJLpYaKFArsP5-17">
          <mxGeometry relative="1" as="geometry" />
        </mxCell>
        <mxCell id="d_tqDm1wJLpYaKFArsP5-19" value="废单消息" style="rounded=1;whiteSpace=wrap;html=1;absoluteArcSize=1;arcSize=14;strokeWidth=2;fillColor=#f8cecc;strokeColor=#b85450;direction=east;" vertex="1" parent="WIyWlLk6GJQsqaUBKTNV-1">
          <mxGeometry x="570" y="377.5" width="94" height="75" as="geometry" />
        </mxCell>
        <mxCell id="d_tqDm1wJLpYaKFArsP5-20" value="回库存" style="rounded=1;whiteSpace=wrap;html=1;fontSize=12;glass=0;strokeWidth=1;shadow=0;fillColor=#f8cecc;strokeColor=#b85450;" vertex="1" parent="WIyWlLk6GJQsqaUBKTNV-1">
          <mxGeometry x="490" y="510" width="120" height="40" as="geometry" />
        </mxCell>
        <mxCell id="d_tqDm1wJLpYaKFArsP5-21" value="回券" style="rounded=1;whiteSpace=wrap;html=1;fontSize=12;glass=0;strokeWidth=1;shadow=0;fillColor=#f8cecc;strokeColor=#b85450;" vertex="1" parent="WIyWlLk6GJQsqaUBKTNV-1">
          <mxGeometry x="630" y="510" width="120" height="40" as="geometry" />
        </mxCell>
        <mxCell id="d_tqDm1wJLpYaKFArsP5-42" style="edgeStyle=orthogonalEdgeStyle;rounded=0;sketch=0;orthogonalLoop=1;jettySize=auto;html=1;exitX=0.5;exitY=1;exitDx=0;exitDy=0;entryX=1;entryY=0.5;entryDx=0;entryDy=0;entryPerimeter=0;shadow=0;endArrow=block;endFill=0;fontSize=12;" edge="1" parent="WIyWlLk6GJQsqaUBKTNV-1" source="d_tqDm1wJLpYaKFArsP5-39" target="d_tqDm1wJLpYaKFArsP5-13">
          <mxGeometry relative="1" as="geometry" />
        </mxCell>
        <mxCell id="d_tqDm1wJLpYaKFArsP5-43" value="成功" style="edgeLabel;html=1;align=center;verticalAlign=middle;resizable=0;points=[];fontSize=12;" vertex="1" connectable="0" parent="d_tqDm1wJLpYaKFArsP5-42">
          <mxGeometry x="-0.0238" y="-3" relative="1" as="geometry">
            <mxPoint as="offset" />
          </mxGeometry>
        </mxCell>
        <mxCell id="d_tqDm1wJLpYaKFArsP5-44" style="edgeStyle=orthogonalEdgeStyle;rounded=0;sketch=0;orthogonalLoop=1;jettySize=auto;html=1;exitX=1;exitY=0.5;exitDx=0;exitDy=0;shadow=0;endArrow=block;endFill=0;fontSize=12;" edge="1" parent="WIyWlLk6GJQsqaUBKTNV-1" source="d_tqDm1wJLpYaKFArsP5-39">
          <mxGeometry relative="1" as="geometry">
            <mxPoint x="568" y="395" as="targetPoint" />
          </mxGeometry>
        </mxCell>
        <mxCell id="d_tqDm1wJLpYaKFArsP5-45" value="失败" style="edgeLabel;html=1;align=center;verticalAlign=middle;resizable=0;points=[];fontSize=12;" vertex="1" connectable="0" parent="d_tqDm1wJLpYaKFArsP5-44">
          <mxGeometry x="0.0588" y="-2" relative="1" as="geometry">
            <mxPoint as="offset" />
          </mxGeometry>
        </mxCell>
        <mxCell id="d_tqDm1wJLpYaKFArsP5-39" value="锁券" style="rhombus;whiteSpace=wrap;html=1;shadow=0;fontFamily=Helvetica;fontSize=12;align=center;strokeWidth=1;spacing=6;spacingTop=-4;fillColor=#f8cecc;strokeColor=#b85450;" vertex="1" parent="WIyWlLk6GJQsqaUBKTNV-1">
          <mxGeometry x="366" y="355" width="100" height="80" as="geometry" />
        </mxCell>
      </root>
    </mxGraphModel>
  </diagram>
</mxfile>
